<svg viewBox="0 0 100 100" style="width: 5em; height: 5em; font-size: 2em; margin-top: auto; margin-bottom: auto;" xmlns="http://www.w3.org/2000/svg">
  <rect x="0" y="0" width="100" height="100" fill="white" rx="15"></rect>
  <rect x="2" y="2" width="96" height="96" fill="black" rx="13"></rect>

  <path d="M32.5,20 L22.5,20 L22.5,60 C22.5,80 22.5,80 42.5 80 L77.5,80 L77.5,70 L42.5,70 C32.5,70 32.5,70 32.5 60 L32.5,20" fill="#a0d050" stroke="white" stroke-width="1"></path>
  <path d="M77.5,20 L62.5,20 C42.5,20 42.5,20 42.5 40 C42.5,60 42.5,60 62.5,60 L77.5,60 L77.5,50 L62.5,50 C51.5,50 51.5,50 51.5 40 C51.5,30 51.5,30 62.5 30 L77.5,30 L77.5,20" fill="#a0d050" stroke="white" stroke-width="1"></path>
</svg>